# xmcd CD database file
#
# Track frame offsets:
#	150
#	3658
#	21321
#
# Disc length: 556 seconds
#
# Revision: 0
# Processed by: cddbd v1.5.1PL0 Copyright (c) Steve Scherf et al.
# Submitted via: CDex 1.51
#
DISCID=1c022a03
DTITLE=ARI1010 - TENSQRT 12inch Remixies
DYEAR=2005
DGENRE=Hip-Hop
TTITLE0=Radio(猫街ZAKIZM)
TTITLE1=TENSQRT(Sugaya.Inc Remix)
TTITLE2=偶然(1010 comtadpolex Remix)
EXTD=YEAR: 2005
EXTT0=
EXTT1=
EXTT2=
PLAYORDER=
